# xmcd
#
# Track frame offsets:
#   150
#   20311
#   33751
#   49329
#   63449
#   69402
#   82365
#   100800
#   117082
#   128661
#   140709
#   154837
#
# Disc length: 2216 seconds
#
# Revision: 0
# Processed by: cddbd v1.5.2PL0 Copyright (c) Steve Scherf et al.
# Submitted via: uFREEDB ActiveX Control 1.5
#
DISCID=a208a60c
DTITLE=Pe. Zezinho - Sem ódio e sem medo
DYEAR=1900
DGENRE=Gospel and Religious
TTITLE0=E eu te digo que te amo
TTITLE1=Trigo verde
TTITLE2=Cada coisa tem seu tempo
TTITLE3=Sem perder a ternura
TTITLE4=Hei de chegar
TTITLE5=Anúncio e denúncia
TTITLE6=Tua palavra é assim
TTITLE7=Construiremos uma casa
TTITLE8=Anonimato
TTITLE9=Sem ódio e sem medo
TTITLE10=A força do pão
TTITLE11=Ai de vós
EXTD=
EXTT0=
EXTT1=
EXTT2=
EXTT3=
EXTT4=
EXTT5=
EXTT6=
EXTT7=
EXTT8=
EXTT9=
EXTT10=
EXTT11=
PLAYORDER=
